<svg xmlns="http://www.w3.org/2000/svg" width="128" height="128">
  <linearGradient id="a" x1="64" x2="64" y1="49.4765" y2="87.5652" gradientUnits="userSpaceOnUse">
    <stop offset="0" stop-color="#616161"/>
    <stop offset="1" stop-color="#212121"/>
  </linearGradient>
  <ellipse cx="64" cy="64" fill="url(#a)" rx="60" ry="31.27"/>
  <linearGradient id="b" x1="3.998" x2="124.002" y1="51.3671" y2="51.3671" gradientUnits="userSpaceOnUse">
    <stop offset="0" stop-color="#78909c"/>
    <stop offset=".5648" stop-color="#b0bec5"/>
    <stop offset="1" stop-color="#78909c"/>
  </linearGradient>
  <path fill="url(#b)" d="M64 44.73c29.2 0 53.51 10.87 58.89 25.27.72-1.94 1.12-3.95 1.12-6 0-17.27-26.86-31.27-60-31.27S4 46.73 4 64c0 2.05.39 4.06 1.12 6C10.49 55.6 34.8 44.73 64 44.73z"/>
  <path fill="#eee" d="M64 35.73c15.55 0 30.13 3.13 41.04 8.82C115.33 49.92 121 56.82 121 64s-5.67 14.08-15.96 19.45C94.13 89.13 79.55 92.27 64 92.27s-30.13-3.13-41.04-8.82C12.67 78.08 7 71.18 7 64s5.67-14.08 15.96-19.45c10.91-5.68 25.49-8.82 41.04-8.82m0-3c-33.14 0-60 14-60 31.27s26.86 31.27 60 31.27 60-14 60-31.27-26.86-31.27-60-31.27z" opacity=".2"/>
  <path fill="#424242" d="M64 35.73c15.55 0 30.13 3.13 41.04 8.82C115.33 49.92 121 56.82 121 64s-5.67 14.08-15.96 19.45C94.13 89.13 79.55 92.27 64 92.27s-30.13-3.13-41.04-8.82C12.67 78.08 7 71.18 7 64s5.67-14.08 15.96-19.45c10.91-5.68 25.49-8.82 41.04-8.82m0-3c-33.14 0-60 14-60 31.27s26.86 31.27 60 31.27 60-14 60-31.27-26.86-31.27-60-31.27z" opacity=".2"/>
</svg>