<svg width="16" height="16" viewBox="0 0 12 12" xmlns="http://www.w3.org/2000/svg"><path d="M9.313 1.937A17.264 17.264 0 0 0 7.555 3.73a14.413 14.413 0 0 0-1.516 2.2c-.471.832-.924 1.816-1.359 2.954l-.471.152a4.786 4.786 0 0 0-.259-1.067 7.054 7.054 0 0 0-.51-1.112 5.037 5.037 0 0 0-.691-.965 2.36 2.36 0 0 0-.034-.14L2.687 5.6c.131-.176.28-.337.45-.483a3.46 3.46 0 0 1 .521-.377c.206.36.375.723.506 1.09.13.363.236.7.314 1.01.083.311.144.568.186.77a25.4 25.4 0 0 1 .74-1.904c.27-.606.585-1.209.944-1.808.363-.599.796-1.215 1.297-1.847.09-.064.238-.126.444-.186a8.15 8.15 0 0 1 1.061-.23c.066.094.12.195.163.302z" style="font-size:11.5px;line-height:0;font-family:'Gentium Book Plus';-inkscape-font-specification:'Gentium Book Plus';fill:#000;fill-opacity:1;stroke:#000;stroke-width:.5;stroke-linecap:round;stroke-linejoin:round;stroke-miterlimit:4;stroke-dasharray:none;stroke-opacity:1;paint-order:markers stroke fill"/></svg>